<svg xmlns="http://www.w3.org/2000/svg" viewBox="0 0 512 512" width="100%" height="100%">
  <!-- Yellow background with rounded corners -->
  <rect width="512" height="512" rx="140" fill="#FBBF24"/>
  <!-- The dark bus icon centered -->
  <g transform="translate(106, 120) scale(12.5)" stroke="#0F172A" stroke-width="2" stroke-linecap="round" stroke-linejoin="round" fill="none">
    <path d="M8 6v6"></path>
    <path d="M15 6v6"></path>
    <path d="M2 12h19.6"></path>
    <path d="M18 18h3s.5-1.7.8-2.8c.1-.4.2-.8.2-1.2 0-.4-.1-.8-.2-1.2l-1.4-5C20.1 6.8 19.1 6 18 6H4a2 2 0 0 0-2 2v10h3"></path>
    <circle cx="7" cy="18" r="2"></circle>
    <path d="M9 18h5"></path>
    <circle cx="16" cy="18" r="2"></circle>
  </g>
</svg>
